<svg id="Layer_1" data-name="Layer 1" xmlns="http://www.w3.org/2000/svg" viewBox="0 0 1506.06 439.92"><defs><style>.cls-1,.cls-2{fill:#fff;}.cls-1{fill-rule:evenodd;}</style></defs><title>sakari_logo_w</title><path class="cls-1" d="M17.68,128.86,131.23,15.32a43.6,43.6,0,0,1,61.5,0L306.27,128.86a43.62,43.62,0,0,1,0,61.5L288.4,208.23,208.86,128.7l38.9-38.9H92.17V245.39l38.9-38.9L210.6,286,192.73,303.9a43.62,43.62,0,0,1-61.5,0L17.68,190.36A43.62,43.62,0,0,1,17.68,128.86Z" transform="translate(-5 -2.63)"/><path class="cls-1" d="M306.27,316.33,192.73,429.87a43.6,43.6,0,0,1-61.5,0L17.68,316.33a43.62,43.62,0,0,1,0-61.5L35.56,237l79.53,79.53-38.9,38.9h155.6V199.8l-38.9,38.89-79.54-79.53,17.88-17.87a43.6,43.6,0,0,1,61.5,0L306.27,254.83A43.62,43.62,0,0,1,306.27,316.33Z" transform="translate(-5 -2.63)"/><path class="cls-2" d="M442.77,317.7q-20.41-5.54-33.3-15.75A20.77,20.77,0,0,1,403,294.9a22.1,22.1,0,0,1,2.7-22.65c3.09-3.79,6.64-5.7,10.65-5.7a20.6,20.6,0,0,1,6.45,1.05,41.11,41.11,0,0,1,7.65,3.75,100.38,100.38,0,0,0,26.1,11.85,105.78,105.78,0,0,0,29.1,3.75q19.8,0,30.3-6.6t10.5-18.9q0-9.28-9.75-15t-34.65-10.8q-27.9-5.68-44.55-13.8t-24.3-20.1q-7.65-12-7.65-29.1a56.68,56.68,0,0,1,10.95-34.05q10.94-15.14,30.3-23.7t43.65-8.55q42.59,0,70.2,21.3a24.07,24.07,0,0,1,6.45,7.35,19.67,19.67,0,0,1,2,9.15,20.23,20.23,0,0,1-4.65,13.2c-3.11,3.81-6.65,5.7-10.65,5.7a20.27,20.27,0,0,1-6.15-.9,41.53,41.53,0,0,1-8-3.9A127.82,127.82,0,0,0,517,146.55q-10.35-3.88-26.25-3.9-18.31,0-28.8,7t-10.5,19.35a17.37,17.37,0,0,0,4,11.85q4.05,4.66,13.5,8.25t26.85,7.5q40.78,9,58.65,23.1t17.85,38.7q0,19.21-10.65,33.9t-30,22.8q-19.35,8.1-44.85,8.1A167.39,167.39,0,0,1,442.77,317.7Z" transform="translate(-5 -2.63)"/><path class="cls-2" d="M802.46,301.65a18.16,18.16,0,0,1-6.75,14.25,22.92,22.92,0,0,1-15.45,5.85,20.22,20.22,0,0,1-10.8-3.15,19.93,19.93,0,0,1-7.8-9.45l-15.9-35.4H644.06l-15.9,35.4a20.24,20.24,0,0,1-7.65,9.45,20,20,0,0,1-11,3.15A23.48,23.48,0,0,1,594,315.9q-6.9-5.85-6.9-14.25a24.14,24.14,0,0,1,2.4-9.6l81-170.1a23.52,23.52,0,0,1,9.9-11,28.19,28.19,0,0,1,14.1-3.75,27.89,27.89,0,0,1,14.4,3.9,26.67,26.67,0,0,1,10.2,10.8l81,170.1A24.14,24.14,0,0,1,802.46,301.65ZM660,238.35h69.9l-34.8-78Z" transform="translate(-5 -2.63)"/><path class="cls-2" d="M1006.46,300.45a19.92,19.92,0,0,1-6.45,14.7,20.64,20.64,0,0,1-14.85,6.3q-9.6,0-17.1-7.8l-93-90.9V299q0,10.8-6.3,17.1t-17.1,6.3q-10.8,0-17.1-6.3t-6.3-17.1V130.65q0-10.49,6.3-16.8t17.1-6.3q10.8,0,17.1,6.3t6.3,16.8v71.7l90.6-87.9q6.6-6.58,15-6.6a20.43,20.43,0,0,1,14.7,6.15,19.69,19.69,0,0,1,6.3,14.55q0,8.72-7.2,15.6l-71.4,66.9,76.5,74.4Q1006.46,292.37,1006.46,300.45Z" transform="translate(-5 -2.63)"/><path class="cls-2" d="M1228.16,301.65a18.16,18.16,0,0,1-6.75,14.25,22.92,22.92,0,0,1-15.45,5.85,20.22,20.22,0,0,1-10.8-3.15,19.93,19.93,0,0,1-7.8-9.45l-15.9-35.4h-101.7l-15.9,35.4a20.24,20.24,0,0,1-7.65,9.45,20,20,0,0,1-11,3.15,23.48,23.48,0,0,1-15.6-5.85q-6.9-5.85-6.9-14.25a24.14,24.14,0,0,1,2.4-9.6l81-170.1a23.52,23.52,0,0,1,9.9-11,28.19,28.19,0,0,1,14.1-3.75,27.89,27.89,0,0,1,14.4,3.9,26.67,26.67,0,0,1,10.2,10.8l81,170.1A24.14,24.14,0,0,1,1228.16,301.65Zm-142.5-63.3h69.9l-34.8-78Z" transform="translate(-5 -2.63)"/><path class="cls-2" d="M1431.86,303.75a16.89,16.89,0,0,1-6.75,13.8,25,25,0,0,1-26.85,2.7,22.49,22.49,0,0,1-9-8.4l-39.6-58.8q-5.1-7.78-10.8-11.25c-3.8-2.29-8.6-3.45-14.4-3.45h-24.3V299q0,10.8-6.15,17.1t-16.65,6.3q-10.8,0-17.1-6.3T1254,299V131q0-10.48,5.7-16.2t16.2-5.7h75.3q37.2,0,56.25,16.35t19,47.25q0,24.3-13.5,40.5t-38.1,21.3a39.59,39.59,0,0,1,16.05,7.05q7,5.26,13.65,15.15l22.8,34.2C1430.36,295.26,1431.86,299.55,1431.86,303.75Zm-58.5-107.85q9-7,9-22.05,0-15.3-9-22.2t-29.1-6.9h-44.7V203h44.7Q1364.36,203,1373.36,195.9Z" transform="translate(-5 -2.63)"/><path class="cls-2" d="M1470.56,316.05q-6.3-6.3-6.3-17.1V130.65q0-10.49,6.3-16.8t17.1-6.3q10.8,0,17.1,6.3t6.3,16.8V299q0,10.8-6.3,17.1t-17.1,6.3Q1476.86,322.35,1470.56,316.05Z" transform="translate(-5 -2.63)"/></svg>